<svg width="341" height="305" viewBox="0 0 341 305" fill="none" xmlns="http://www.w3.org/2000/svg">
<path d="M241.015 41.4711L248.828 7.2123H340.786L276.475 297.51H184.518L191.73 263.853C167.088 292.101 141.244 304.723 108.788 304.723C43.8765 304.723 0.00122583 262.049 0.00122583 184.516C0.00122583 100.372 51.6899 -8.45598e-05 152.663 -8.45598e-05C188.725 -8.45598e-05 222.383 14.4247 241.015 41.4711ZM95.5651 165.283C95.5651 200.143 120.207 222.982 152.062 222.982C173.699 222.982 192.932 212.164 206.756 195.936L226.59 108.185C214.569 92.5587 193.533 81.7401 168.891 81.7401C126.218 81.7401 95.5651 119.605 95.5651 165.283Z" fill="white"/>
</svg>
